PathFileType	4	(X/Y/Z)	C:\Users\WrightLab\Desktop\Jo\P2_Trial35.trc
DataRate	CameraRate	NumFrames	NumMarkers	Units	OrigDataRate	OrigDataStartFrame	OrigNumFrames
100.00	100.00	      16	19	mm	100.00	288	      1148
Frame#	Time	Headset_Front			Headset_Back			Headset_Left			Headset_Right			Left_Shoulder			Right_Shoulder			Sternum			C7			Left Elbow			Right Elbow			Left Wrist			Right Wrist			Left ASIS			Right ASIS			S2			Left Knee			Right Knee			Left Ankle			Right Ankle			
		X1	Y1	Z1	X2	Y2	Z2	X3	Y3	Z3	X4	Y4	Z4	X5	Y5	Z5	X6	Y6	Z6	X7	Y7	Z7	X8	Y8	Z8	X9	Y9	Z9	X10	Y10	Z10	X11	Y11	Z11	X12	Y12	Z12	X13	Y13	Z13	X14	Y14	Z14	X15	Y15	Z15	X16	Y16	Z16	X17	Y17	Z17	X18	Y18	Z18	X19	Y19	Z19	

288	2.870				-130.04350	1679.04077	1595.75867	-256.14212	1564.82959	1560.27771													-165.39330	1491.91479	1781.79517				-8.53198	1044.66235	1778.22607	69.58546	1243.65649	1964.61914	83.07581	1136.93567	1786.16003										-297.57507	485.60065	1773.81628	31.90422	599.62891	1960.85681	-325.62979	129.45445	1804.30542	49.42551	166.08707	1901.54016	
289	2.880	26.02973	1489.48450	1746.51343	-129.27161	1679.45679	1597.16370	-254.85265	1565.54810	1561.45251													-163.69896	1492.33887	1783.42615				-8.20886	1044.48792	1778.01379	70.99418	1243.01233	1963.72852	84.35889	1136.65857	1784.81165	-350.41937	997.13196	1482.92444	-375.00162	1043.35327	1428.72253	-137.02588	1110.84070	1470.78076	-297.36331	485.69684	1773.71448	32.34124	599.56360	1960.58264	-325.02786	130.02977	1804.24353	49.60987	165.86211	1901.64111	
290	2.890				-127.85867	1679.55237	1596.73462	-253.34735	1566.41846	1562.80591													-162.22354	1492.65234	1784.27014				-7.49846	1044.31262	1777.10120	72.91173	1242.25952	1963.31921	84.97435	1136.04504	1784.45642										-297.15460	485.79938	1773.64319	32.75590	599.58954	1960.27332	-324.38965	130.60487	1804.20361	49.55290	165.53004	1902.04395	
291	2.900	29.41487	1488.85669	1746.38293	-126.37476	1680.12720	1598.90894	-251.99188	1566.80847	1562.45203													-160.91490	1492.69592	1784.14709				-6.90357	1044.04797	1776.71948	74.69366	1241.73328	1963.17664	85.89612	1135.21277	1784.19299										-296.89651	485.95294	1773.51404	34.10495	599.29999	1959.05005	-324.35934	130.65231	1804.18665	49.67792	165.20044	1902.31445	
292	2.910	30.59488	1488.57019	1746.94690	-124.51848	1680.40112	1599.14026	-250.97726	1567.43713	1563.18274													-158.65135	1493.10559	1785.18689				-6.48772	1043.74609	1776.14441	75.61033	1240.75232	1961.34924	86.79695	1134.77661	1782.52466										-296.98245	486.45599	1774.57837	34.37607	599.26306	1958.94275	-324.29672	130.67630	1804.20654	49.84993	165.14894	1902.31128	
293	2.920	31.79119	1488.66736	1748.12244	-123.01517	1680.82935	1599.14514	-248.82541	1568.50647	1564.51221													-157.23074	1493.36755	1786.15442				-5.98347	1043.37561	1774.94373	77.50159	1239.91589	1960.86304	87.59899	1134.63062	1781.40613	-342.90088	993.07147	1460.88843	-306.88715	989.82202	1459.66736	-137.05788	1112.88977	1470.88428	-296.88406	486.59259	1774.55005	34.64359	599.25989	1958.81592	-323.58185	130.59311	1803.58801	50.06651	164.91794	1902.45471	
294	2.930	33.58449	1488.42212	1748.08862	-121.40692	1681.95056	1602.02954	-247.35112	1568.93628	1564.34509													-155.93803	1493.70752	1786.26831				-5.52447	1043.17029	1774.71887	79.52642	1238.80994	1961.67542	89.40631	1134.24597	1782.04407										-296.87167	486.75888	1774.61707	35.97850	599.61188	1957.37549	-323.52502	130.60953	1803.60999	50.07865	164.89272	1902.52234	
295	2.940	34.91521	1488.16211	1748.37097	-119.89154	1682.80786	1601.62756	-246.24545	1569.75122	1565.29871													-153.95097	1493.99170	1788.20386				-4.69919	1042.98547	1773.60498	80.65633	1238.01172	1961.68958	90.52914	1134.12854	1780.97314										-296.67758	486.78226	1776.30420	36.96998	599.11230	1955.90479	-322.79099	130.74658	1803.15833	50.31105	164.95569	1902.37402	
296	2.950	36.89930	1487.99878	1748.57605	-118.31483	1683.29431	1602.93494	-243.97231	1570.88245	1566.67944													-152.59642	1494.44519	1788.70789				-3.79660	1043.03625	1773.04626	82.20429	1237.10730	1960.83240	90.87090	1133.79871	1779.70117										-296.79379	486.94174	1776.51331	37.48172	599.43036	1955.24426	-322.71762	130.74181	1803.20581	51.84814	164.09915	1903.04309	
297	2.960	38.52197	1487.85852	1749.20471	-116.29504	1684.02173	1604.57458	-242.59431	1571.14551	1566.66333													-150.51588	1494.61365	1789.14038				-2.97407	1042.54712	1773.06262	83.80920	1236.40857	1959.94666	92.01971	1133.58777	1777.83301	-345.44980	1002.70123	1459.10034	-360.04883	1043.60193	1431.59839	-133.67816	1113.80688	1449.41272	-296.84326	487.08658	1776.69568	38.57920	598.51868	1953.15027	-322.66632	130.79060	1803.20044	52.16769	163.25290	1902.32446	
298	2.970	40.25814	1487.47412	1749.19849	-115.41467	1684.46887	1605.21533	-241.36421	1571.95569	1568.13538													-148.60838	1494.98193	1790.65125				-2.20927	1042.72986	1770.91956	85.57900	1235.52551	1959.62878	93.58746	1133.02100	1777.99585	-374.83112	1030.50256	1530.21082				-201.99962	1023.60468	1965.68286	-297.02597	487.29990	1777.07764	39.60445	597.84875	1952.48340	-322.59485	130.84113	1803.20593	52.34008	163.18095	1902.38696	
299	2.980	42.11827	1487.68604	1749.96375	-113.10912	1685.00891	1606.71960	-239.03542	1572.27612	1568.83459													-146.65672	1494.71545	1790.43945				-1.37280	1042.64429	1770.10583	86.69030	1234.51721	1959.03613	94.64870	1133.06775	1776.36646	-374.85303	1033.04663	1529.19958				-200.46886	1023.77570	1965.26233	-297.33484	487.87448	1778.00110	40.32462	598.16144	1951.72498	-322.48804	130.86282	1803.25403	52.38311	163.16568	1902.47791	
300	2.990	44.15180	1487.05627	1750.15112	-111.25470	1685.43604	1606.67981	-237.63226	1572.50916	1568.74463													-144.51312	1495.35071	1792.77307				-0.93212	1042.29102	1769.57458	88.33033	1233.69092	1958.18530	95.77293	1132.55981	1775.52832	-374.29150	1034.86877	1529.23181				-198.65009	1023.51398	1965.26001	-297.52390	488.06534	1779.47852	41.19572	598.18536	1951.17444	-322.43506	130.91663	1803.24597	53.05922	162.33240	1901.44287	
301	3.000	45.66082	1486.97314	1751.14160	-109.54999	1685.66028	1607.27527	-235.64610	1573.33679	1570.26111													-142.52699	1495.01440	1791.96057				0.53911	1041.95325	1768.89368	89.98987	1232.78796	1959.93323	96.95724	1132.07300	1775.59497	-374.21896	1037.63965	1529.33728				-197.43056	1023.53729	1965.52002	-297.69397	488.26727	1779.79077	42.59029	596.87885	1948.70093	-322.35712	131.65860	1803.81628	54.27862	161.82726	1901.20569	
302	3.010				-107.70792	1686.87024	1609.30835	-233.71652	1574.19983	1570.88916													-140.43121	1495.71680	1794.86804				1.34479	1041.76807	1767.99463	91.32833	1231.66724	1959.07520	98.63912	1131.90063	1774.26074							-195.97224	1023.45374	1965.13745	-297.80450	488.46155	1781.14661	42.94144	596.72919	1948.78113	-322.09360	132.35352	1804.29492	55.08705	161.60744	1901.69458	
303	3.020				-106.08104	1686.65222	1608.81177	-231.87744	1574.31152	1570.00342													-138.17540	1495.35828	1793.94385				2.23984	1041.68921	1767.31641	92.70815	1230.38342	1958.80469	100.19156	1131.62048	1774.40845	-373.78168	1043.78931	1529.71106				-194.63722	1023.40088	1965.22803	-297.97379	488.60825	1781.42432	44.21367	597.09796	1947.49023	-322.06757	132.38510	1804.28723	54.91928	161.19446	1900.34766	
